<?xml version="1.0" encoding="UTF-8" standalone="no"?>
<svg
   xmlns:dc="http://purl.org/dc/elements/1.1/"
   xmlns:cc="http://creativecommons.org/ns#"
   xmlns:rdf="http://www.w3.org/1999/02/22-rdf-syntax-ns#"
   xmlns:svg="http://www.w3.org/2000/svg"
   xmlns="http://www.w3.org/2000/svg"
   xmlns:sodipodi="http://sodipodi.sourceforge.net/DTD/sodipodi-0.dtd"
   xmlns:inkscape="http://www.inkscape.org/namespaces/inkscape"
   width="24in"
   height="12in"
   viewBox="0 0 609.60001 304.80001"
   version="1.1"
   id="svg8"
   inkscape:version="1.0 (4035a4f, 2020-05-01)"
   sodipodi:docname="acrylic_guard.svg">
  <defs
     id="defs2">
    <clipPath
       id="clipPath867"
       clipPathUnits="userSpaceOnUse">
      <path
         id="path865"
         d="m 3240,8769 h 15753 v 3135 H 3240 V 8769" />
    </clipPath>
  </defs>
  <sodipodi:namedview
     id="base"
     pagecolor="#ffffff"
     bordercolor="#666666"
     borderopacity="1.0"
     inkscape:pageopacity="0.0"
     inkscape:pageshadow="2"
     inkscape:zoom="0.35"
     inkscape:cx="400"
     inkscape:cy="560"
     inkscape:document-units="mm"
     inkscape:current-layer="layer1"
     inkscape:document-rotation="0"
     showgrid="false"
     units="in"
     inkscape:window-width="1440"
     inkscape:window-height="785"
     inkscape:window-x="0"
     inkscape:window-y="23"
     inkscape:window-maximized="0" />
  <metadata
     id="metadata5">
    <rdf:RDF>
      <cc:Work
         rdf:about="">
        <dc:format>image/svg+xml</dc:format>
        <dc:type
           rdf:resource="http://purl.org/dc/dcmitype/StillImage" />
        <dc:title></dc:title>
      </cc:Work>
    </rdf:RDF>
  </metadata>
  <g
     inkscape:label="Layer 1"
     inkscape:groupmode="layer"
     id="layer1">
    <g
       transform="matrix(0.02116667,0,0,-0.02116667,-41.030111,304.22248)"
       clip-path="url(#clipPath867)"
       id="g863"
       style="fill:none;stroke:#ff0000;stroke-opacity:1;stroke-width:9.44881739;stroke-miterlimit:4;stroke-dasharray:none">
      <path
         id="path869"
         style="fill:none;stroke:#ff0000;stroke-width:9.44881739;stroke-linecap:round;stroke-linejoin:round;stroke-miterlimit:4;stroke-dasharray:none;stroke-opacity:1"
         d="m 18648,10860.5 c 0,-28.442 23.057,-51.5 51.5,-51.5 28.443,0 51.5,23.058 51.5,51.5 0,28.442 -23.057,51.5 -51.5,51.5 -28.443,0 -51.5,-23.058 -51.5,-51.5" />
      <path
         id="path871"
         style="fill:none;stroke:#ff0000;stroke-width:9.44881739;stroke-linecap:round;stroke-linejoin:round;stroke-miterlimit:4;stroke-dasharray:none;stroke-opacity:1"
         d="m 4626,11610.5 c 0,-28.442 23.0571,-51.5 51.5,-51.5 28.4429,0 51.5,23.058 51.5,51.5 0,28.442 -23.0571,51.5 -51.5,51.5 -28.4429,0 -51.5,-23.058 -51.5,-51.5" />
      <path
         id="path873"
         style="fill:none;stroke:#ff0000;stroke-width:9.44881739;stroke-linecap:round;stroke-linejoin:round;stroke-miterlimit:4;stroke-dasharray:none;stroke-opacity:1"
         d="m 18648,11610.5 c 0,-28.442 23.057,-51.5 51.5,-51.5 28.443,0 51.5,23.058 51.5,51.5 0,28.442 -23.057,51.5 -51.5,51.5 -28.443,0 -51.5,-23.058 -51.5,-51.5" />
      <path
         id="path875"
         style="fill:none;stroke:#ff0000;stroke-width:9.44881739;stroke-linecap:round;stroke-linejoin:round;stroke-miterlimit:4;stroke-dasharray:none;stroke-opacity:1"
         d="m 4626,10860.5 c 0,-28.442 23.0571,-51.5 51.5,-51.5 28.4429,0 51.5,23.058 51.5,51.5 0,28.442 -23.0571,51.5 -51.5,51.5 -28.4429,0 -51.5,-23.058 -51.5,-51.5" />
      <path
         id="path877"
         style="fill:none;stroke:#ff0000;stroke-width:9.44881739;stroke-linecap:round;stroke-linejoin:round;stroke-miterlimit:4;stroke-dasharray:none;stroke-opacity:1"
         d="M 18696,11752 H 3537" />
      <path
         id="path879"
         style="fill:none;stroke:#ff0000;stroke-width:9.44881739;stroke-linecap:round;stroke-linejoin:round;stroke-miterlimit:4;stroke-dasharray:none;stroke-opacity:1"
         d="m 18842,11607.5 c 0,80.357 -65.143,145.5 -145.5,145.5" />
      <path
         id="path881"
         style="fill:none;stroke:#ff0000;stroke-width:9.44881739;stroke-linecap:round;stroke-linejoin:round;stroke-miterlimit:4;stroke-dasharray:none;stroke-opacity:1"
         d="m 18841,10863 v 744" />
      <path
         id="path883"
         style="fill:none;stroke:#ff0000;stroke-width:9.44881739;stroke-linecap:round;stroke-linejoin:round;stroke-miterlimit:4;stroke-dasharray:none;stroke-opacity:1"
         d="m 18696.5,10718 c 80.357,0 145.5,65.143 145.5,145.5" />
      <path
         id="path885"
         style="fill:none;stroke:#ff0000;stroke-width:9.44881739;stroke-linecap:round;stroke-linejoin:round;stroke-miterlimit:4;stroke-dasharray:none;stroke-opacity:1"
         d="M 4516,10718 H 18696" />
      <path
         id="path887"
         style="fill:none;stroke:#ff0000;stroke-width:9.44881739;stroke-linecap:round;stroke-linejoin:round;stroke-miterlimit:4;stroke-dasharray:none;stroke-opacity:1"
         d="m 4516.5,10719 c -80.3574,0 -145.5,-65.143 -145.5,-145.5" />
      <path
         id="path889"
         style="fill:none;stroke:#ff0000;stroke-width:9.44881739;stroke-linecap:round;stroke-linejoin:round;stroke-miterlimit:4;stroke-dasharray:none;stroke-opacity:1"
         d="m 4371,9066 v 1507" />
      <path
         id="path891"
         style="fill:none;stroke:#ff0000;stroke-width:9.44881739;stroke-linecap:round;stroke-linejoin:round;stroke-miterlimit:4;stroke-dasharray:none;stroke-opacity:1"
         d="m 4226.5,8921 c 80.3574,0 145.5,65.1426 145.5,145.5" />
      <path
         id="path893"
         style="fill:none;stroke:#ff0000;stroke-width:9.44881739;stroke-linecap:round;stroke-linejoin:round;stroke-miterlimit:4;stroke-dasharray:none;stroke-opacity:1"
         d="m 3537,8921 h 689" />
      <path
         id="path895"
         style="fill:none;stroke:#ff0000;stroke-width:9.44881739;stroke-linecap:round;stroke-linejoin:round;stroke-miterlimit:4;stroke-dasharray:none;stroke-opacity:1"
         d="m 3392,9066.5 c 0,-80.3574 65.1426,-145.5 145.5,-145.5" />
      <path
         id="path897"
         style="fill:none;stroke:#ff0000;stroke-width:9.44881739;stroke-linecap:round;stroke-linejoin:round;stroke-miterlimit:4;stroke-dasharray:none;stroke-opacity:1"
         d="M 3392,11607 V 9066" />
      <path
         id="path899"
         style="fill:none;stroke:#ff0000;stroke-width:9.44881739;stroke-linecap:round;stroke-linejoin:round;stroke-miterlimit:4;stroke-dasharray:none;stroke-opacity:1"
         d="m 3537.5,11753 c -80.3574,0 -145.5,-65.143 -145.5,-145.5" />
    </g>
  </g>
</svg>
