<?xml version="1.0" encoding="UTF-8" standalone="no"?>
<svg
   xmlns:dc="http://purl.org/dc/elements/1.1/"
   xmlns:cc="http://creativecommons.org/ns#"
   xmlns:rdf="http://www.w3.org/1999/02/22-rdf-syntax-ns#"
   xmlns:svg="http://www.w3.org/2000/svg"
   xmlns="http://www.w3.org/2000/svg"
   xmlns:sodipodi="http://sodipodi.sourceforge.net/DTD/sodipodi-0.dtd"
   xmlns:inkscape="http://www.inkscape.org/namespaces/inkscape"
   sodipodi:docname="bottom_acrylic.svg"
   inkscape:version="1.0 (4035a4f, 2020-05-01)"
   id="svg881"
   version="1.1"
   viewBox="0 0 609.60001 304.80001"
   height="12in"
   width="24in">
  <defs
     id="defs875">
    <clipPath
       clipPathUnits="userSpaceOnUse"
       id="clipPath1478">
      <path
         d="m 1491,6598 h 15753 v 5933 H 1491 V 6598"
         id="path1476" />
    </clipPath>
  </defs>
  <sodipodi:namedview
     inkscape:window-maximized="0"
     inkscape:window-y="23"
     inkscape:window-x="0"
     inkscape:window-height="785"
     inkscape:window-width="1252"
     units="in"
     showgrid="false"
     inkscape:document-rotation="0"
     inkscape:current-layer="layer1"
     inkscape:document-units="mm"
     inkscape:cy="560"
     inkscape:cx="400"
     inkscape:zoom="0.35"
     inkscape:pageshadow="2"
     inkscape:pageopacity="0.0"
     borderopacity="1.0"
     bordercolor="#666666"
     pagecolor="#ffffff"
     id="base" />
  <metadata
     id="metadata878">
    <rdf:RDF>
      <cc:Work
         rdf:about="">
        <dc:format>image/svg+xml</dc:format>
        <dc:type
           rdf:resource="http://purl.org/dc/dcmitype/StillImage" />
        <dc:title></dc:title>
      </cc:Work>
    </rdf:RDF>
  </metadata>
  <g
     id="layer1"
     inkscape:groupmode="layer"
     inkscape:label="Layer 1">
    <g
       style="fill:none;stroke:#ff0000;stroke-opacity:1;stroke-width:9.44881739;stroke-miterlimit:4;stroke-dasharray:none"
       id="g1474"
       clip-path="url(#clipPath1478)"
       transform="matrix(0.02116667,0,0,-0.02116667,-8.5453167,312.0723)">
      <path
         d="m 9626,9451.5 c 0,-28.4424 23.0576,-51.5 51.5,-51.5 28.4424,0 51.5,23.0576 51.5,51.5 0,28.4424 -23.0576,51.5 -51.5,51.5 -28.4424,0 -51.5,-23.0576 -51.5,-51.5"
         style="fill:none;stroke:#ff0000;stroke-width:9.44881739;stroke-linecap:round;stroke-linejoin:round;stroke-miterlimit:4;stroke-dasharray:none;stroke-opacity:1"
         id="path1480" />
      <path
         d="m 5341,10351.5 c 0,-28.442 23.0571,-51.5 51.5,-51.5 28.4429,0 51.5,23.058 51.5,51.5 0,28.442 -23.0571,51.5 -51.5,51.5 -28.4429,0 -51.5,-23.058 -51.5,-51.5"
         style="fill:none;stroke:#ff0000;stroke-width:9.44881739;stroke-linecap:round;stroke-linejoin:round;stroke-miterlimit:4;stroke-dasharray:none;stroke-opacity:1"
         id="path1482" />
      <path
         d="m 14341,10351.5 c 0,-28.442 23.058,-51.5 51.5,-51.5 28.442,0 51.5,23.058 51.5,51.5 0,28.442 -23.058,51.5 -51.5,51.5 -28.442,0 -51.5,-23.058 -51.5,-51.5"
         style="fill:none;stroke:#ff0000;stroke-width:9.44881739;stroke-linecap:round;stroke-linejoin:round;stroke-miterlimit:4;stroke-dasharray:none;stroke-opacity:1"
         id="path1484" />
      <path
         d="m 4581,7950.5 c 0,-28.4429 23.0571,-51.5 51.5,-51.5 28.4429,0 51.5,23.0571 51.5,51.5 0,28.4429 -23.0571,51.5 -51.5,51.5 -28.4429,0 -51.5,-23.0571 -51.5,-51.5"
         style="fill:none;stroke:#ff0000;stroke-width:9.44881739;stroke-linecap:round;stroke-linejoin:round;stroke-miterlimit:4;stroke-dasharray:none;stroke-opacity:1"
         id="path1486" />
      <path
         d="m 15133,8550.5 c 0,-28.4424 23.058,-51.5 51.5,-51.5 28.442,0 51.5,23.0576 51.5,51.5 0,28.4424 -23.058,51.5 -51.5,51.5 -28.442,0 -51.5,-23.0576 -51.5,-51.5"
         style="fill:none;stroke:#ff0000;stroke-width:9.44881739;stroke-linecap:round;stroke-linejoin:round;stroke-miterlimit:4;stroke-dasharray:none;stroke-opacity:1"
         id="path1488" />
      <path
         d="m 2214,10111.5 c 0,28.442 -23.0574,51.5 -51.5,51.5 -28.4426,0 -51.5,-23.058 -51.5,-51.5 0,-28.442 23.0574,-51.5 51.5,-51.5 28.4426,0 51.5,23.058 51.5,51.5"
         style="fill:none;stroke:#ff0000;stroke-width:9.44881739;stroke-linecap:round;stroke-linejoin:round;stroke-miterlimit:4;stroke-dasharray:none;stroke-opacity:1"
         id="path1490" />
      <path
         d="m 2980,12237.5 c 0,28.442 -23.0574,51.5 -51.5,51.5 -28.4426,0 -51.5,-23.058 -51.5,-51.5 0,-28.442 23.0574,-51.5 51.5,-51.5 28.4426,0 51.5,23.058 51.5,51.5"
         style="fill:none;stroke:#ff0000;stroke-width:9.44881739;stroke-linecap:round;stroke-linejoin:round;stroke-miterlimit:4;stroke-dasharray:none;stroke-opacity:1"
         id="path1492" />
      <path
         d="m 17002,11487.5 c 0,28.442 -23.057,51.5 -51.5,51.5 -28.443,0 -51.5,-23.058 -51.5,-51.5 0,-28.442 23.057,-51.5 51.5,-51.5 28.443,0 51.5,23.058 51.5,51.5"
         style="fill:none;stroke:#ff0000;stroke-width:9.44881739;stroke-linecap:round;stroke-linejoin:round;stroke-miterlimit:4;stroke-dasharray:none;stroke-opacity:1"
         id="path1494" />
      <path
         d="m 10302,7152.5 c 0,28.4429 -23.058,51.5 -51.5,51.5 -28.442,0 -51.5,-23.0571 -51.5,-51.5 0,-28.4429 23.058,-51.5 51.5,-51.5 28.442,0 51.5,23.0571 51.5,51.5"
         style="fill:none;stroke:#ff0000;stroke-width:9.44881739;stroke-linecap:round;stroke-linejoin:round;stroke-miterlimit:4;stroke-dasharray:none;stroke-opacity:1"
         id="path1496" />
      <path
         d="m 17002,12237.5 c 0,28.442 -23.057,51.5 -51.5,51.5 -28.443,0 -51.5,-23.058 -51.5,-51.5 0,-28.442 23.057,-51.5 51.5,-51.5 28.443,0 51.5,23.058 51.5,51.5"
         style="fill:none;stroke:#ff0000;stroke-width:9.44881739;stroke-linecap:round;stroke-linejoin:round;stroke-miterlimit:4;stroke-dasharray:none;stroke-opacity:1"
         id="path1498" />
      <path
         d="m 2980,11487.5 c 0,28.442 -23.0574,51.5 -51.5,51.5 -28.4426,0 -51.5,-23.058 -51.5,-51.5 0,-28.442 23.0574,-51.5 51.5,-51.5 28.4426,0 51.5,23.058 51.5,51.5"
         style="fill:none;stroke:#ff0000;stroke-width:9.44881739;stroke-linecap:round;stroke-linejoin:round;stroke-miterlimit:4;stroke-dasharray:none;stroke-opacity:1"
         id="path1500" />
      <path
         d="m 16997,9451.5 c 0,28.4424 -23.057,51.5 -51.5,51.5 -28.443,0 -51.5,-23.0576 -51.5,-51.5 0,-28.4424 23.057,-51.5 51.5,-51.5 28.443,0 51.5,23.0576 51.5,51.5"
         style="fill:none;stroke:#ff0000;stroke-width:9.44881739;stroke-linecap:round;stroke-linejoin:round;stroke-miterlimit:4;stroke-dasharray:none;stroke-opacity:1"
         id="path1502" />
      <g
         style="fill:none;stroke:#ff0000;stroke-opacity:1;stroke-width:9.44881739;stroke-miterlimit:4;stroke-dasharray:none"
         id="g1504"
         transform="rotate(90,-2553.5,4342)">
        <path
           d="M 0,145.5 C -80.35744,145.5 -145.5,80.35744 -145.5,0"
           style="fill:none;stroke:#ff0000;stroke-width:9.44881739;stroke-linecap:round;stroke-linejoin:round;stroke-miterlimit:4;stroke-dasharray:none;stroke-opacity:1"
           id="path1506" />
      </g>
      <path
         d="M 16947,6750 H 1788"
         style="fill:none;stroke:#ff0000;stroke-width:9.44881739;stroke-linecap:round;stroke-linejoin:round;stroke-miterlimit:4;stroke-dasharray:none;stroke-opacity:1"
         id="path1508" />
      <g
         style="fill:none;stroke:#ff0000;stroke-opacity:1;stroke-width:9.44881739;stroke-miterlimit:4;stroke-dasharray:none"
         id="g1510"
         transform="rotate(180,8473.75,3447.75)">
        <path
           d="M 0,145.5 C -80.35744,145.5 -145.5,80.35744 -145.5,0"
           style="fill:none;stroke:#ff0000;stroke-width:9.44881739;stroke-linecap:round;stroke-linejoin:round;stroke-miterlimit:4;stroke-dasharray:none;stroke-opacity:1"
           id="path1512" />
      </g>
      <path
         d="M 17092,12234 V 6895"
         style="fill:none;stroke:#ff0000;stroke-width:9.44881739;stroke-linecap:round;stroke-linejoin:round;stroke-miterlimit:4;stroke-dasharray:none;stroke-opacity:1"
         id="path1514" />
      <g
         style="fill:none;stroke:#ff0000;stroke-opacity:1;stroke-width:9.44881739;stroke-miterlimit:4;stroke-dasharray:none"
         id="g1516"
         transform="rotate(-90,14591,-2356.5)">
        <path
           d="M 0,145.5 C -80.35744,145.5 -145.5,80.35744 -145.5,0"
           style="fill:none;stroke:#ff0000;stroke-width:9.44881739;stroke-linecap:round;stroke-linejoin:round;stroke-miterlimit:4;stroke-dasharray:none;stroke-opacity:1"
           id="path1518" />
      </g>
      <path
         d="M 1788,12379 H 16947"
         style="fill:none;stroke:#ff0000;stroke-width:9.44881739;stroke-linecap:round;stroke-linejoin:round;stroke-miterlimit:4;stroke-dasharray:none;stroke-opacity:1"
         id="path1520" />
      <path
         d="m 1788.5,12380 c -80.3574,0 -145.5,-65.143 -145.5,-145.5"
         style="fill:none;stroke:#ff0000;stroke-width:9.44881739;stroke-linecap:round;stroke-linejoin:round;stroke-miterlimit:4;stroke-dasharray:none;stroke-opacity:1"
         id="path1522" />
      <path
         d="m 1643,6895 v 5339"
         style="fill:none;stroke:#ff0000;stroke-width:9.44881739;stroke-linecap:round;stroke-linejoin:round;stroke-miterlimit:4;stroke-dasharray:none;stroke-opacity:1"
         id="path1524" />
    </g>
  </g>
</svg>
